<svg width="52" height="52" viewBox="0 0 52 52" fill="none" xmlns="http://www.w3.org/2000/svg">
<path fill-rule="evenodd" clip-rule="evenodd" d="M22.549 49.3147C22.3096 49.1506 22.0735 48.9849 21.8406 48.8176C23.2722 48.0793 24.6594 47.2672 25.9975 46.3911C27.1585 45.6332 28.2753 44.826 29.3575 43.9696C29.551 43.8219 29.7412 43.671 29.9282 43.5168C30.9022 42.7195 31.8468 41.8877 32.7569 41.0165C32.9733 40.8098 33.1881 40.6014 33.4013 40.3914C34.1852 39.6105 34.9395 38.8033 35.6643 37.9699C35.943 37.6483 36.2185 37.3235 36.4907 36.9954C37.104 36.2538 37.6927 35.4926 38.2568 34.7116C38.5061 34.3704 38.7521 34.0242 38.9947 33.6731C39.5523 32.8594 40.0836 32.0276 40.5886 31.1778C40.7985 30.8267 41.0035 30.4723 41.2036 30.1146C41.6857 29.255 42.1416 28.3805 42.5712 27.4913C42.7549 27.1074 42.9336 26.7202 43.1074 26.3298C43.4977 25.4537 43.8617 24.5645 44.1995 23.6621C44.3504 23.2618 44.4947 22.8599 44.6324 22.4563C44.9899 21.4161 45.3113 20.3596 45.5967 19.2866C45.6721 18.9946 45.7459 18.7026 45.818 18.4105C46.1132 17.1932 46.3608 15.9595 46.5609 14.7093C46.6002 14.4698 46.6363 14.2286 46.6691 13.9858C46.8659 12.6323 47.0036 11.2542 47.0774 9.86132C45.8475 9.23625 44.5882 8.66532 43.2993 8.14852C43.0763 8.05993 42.8516 7.97298 42.6253 7.88767C42.6056 9.48726 42.4925 11.0672 42.2957 12.6225C42.1842 13.5051 42.0464 14.3796 41.8825 15.2458C41.7644 15.8725 41.6316 16.4943 41.484 17.1112C41.2544 18.0726 40.9937 19.0192 40.7018 19.9511C40.5444 20.4433 40.3804 20.9338 40.2099 21.4227C39.8917 22.3119 39.5474 23.1864 39.1768 24.046C39.0062 24.4365 38.8308 24.8237 38.6504 25.2076C38.224 26.1198 37.7649 27.0123 37.2729 27.8851C37.086 28.2197 36.8941 28.5511 36.6974 28.8793C36.1825 29.7455 35.638 30.5888 35.0641 31.4091C34.8214 31.7602 34.5722 32.1047 34.3163 32.4427C33.7555 33.1974 33.1701 33.9323 32.5601 34.6477C32.2256 35.0414 31.8829 35.4302 31.5319 35.8141C30.8694 36.536 30.1824 37.2333 29.4707 37.9059C29.005 38.3456 28.5311 38.7754 28.049 39.1954C27.3832 39.7696 26.6994 40.3242 25.9975 40.859C24.7431 41.8138 23.4345 42.7047 22.0718 43.5168C20.7288 44.319 19.3415 45.0475 17.91 45.6972C17.277 45.1426 16.6571 44.5717 16.0504 43.9844C15.4994 43.4528 14.9616 42.9081 14.4368 42.3503C15.8684 41.7794 17.2606 41.1248 18.5987 40.3914C19.9614 39.6433 21.2749 38.8115 22.5293 37.9059C23.7444 37.0298 24.9005 36.0848 25.9975 35.0759C26.073 35.0069 26.1468 34.9397 26.2189 34.8741C27.2274 33.9291 28.1867 32.9299 29.0919 31.8767C29.3247 31.6076 29.5527 31.3336 29.7757 31.0547C30.4119 30.2705 31.017 29.4617 31.591 28.6283C31.8861 28.1984 32.1715 27.7637 32.447 27.324C32.9258 26.5594 33.3767 25.7785 33.7998 24.9812C34.0458 24.5218 34.2819 24.0559 34.5082 23.5834C34.9411 22.6778 35.338 21.7541 35.6987 20.8124C35.8299 20.4744 35.9545 20.1348 36.0726 19.7936C36.5252 18.5041 36.9089 17.1801 37.2237 15.8315C37.2467 15.7265 37.2697 15.6215 37.2926 15.5165C37.6173 14.0695 37.8534 12.5929 38.001 11.0869C38.1289 9.84655 38.1929 8.58164 38.1929 7.30689C38.1929 7.01814 38.1896 6.7294 38.183 6.44065C37.1204 6.15518 36.0431 5.90581 34.951 5.69253C34.5344 5.6105 34.1163 5.53503 33.6965 5.46613C33.7293 6.07643 33.7457 6.69002 33.7457 7.30689C33.7457 8.22891 33.7096 9.14109 33.6375 10.0434C33.5145 11.5397 33.2931 13.0064 32.9832 14.4386C32.8684 14.9571 32.7438 15.4689 32.6093 15.9742C32.3568 16.9127 32.0649 17.8314 31.7336 18.7305C31.4253 19.577 31.0843 20.4055 30.7104 21.216C30.4939 21.6852 30.2676 22.1478 30.0315 22.6039C29.5592 23.5096 29.0525 24.3906 28.5015 25.247C28.2228 25.6834 27.9325 26.1132 27.6308 26.5365C27.1159 27.2649 26.5715 27.9704 25.9975 28.6529C25.3744 29.3977 24.7185 30.1146 24.0298 30.8037C23.6657 31.1712 23.2918 31.5289 22.9081 31.8767C21.816 32.8758 20.655 33.8011 19.4399 34.6477C18.1904 35.5188 16.8769 36.3014 15.5093 36.9954C14.1712 37.6746 12.779 38.2652 11.3425 38.7623C11.0572 38.3948 10.7767 38.0257 10.5013 37.6549C9.92404 36.8772 9.36978 36.0832 8.83848 35.2727C10.275 34.8445 11.6721 34.308 13.0053 33.6731C14.3778 33.0185 15.6913 32.2606 16.9359 31.4091C18.1658 30.5724 19.3268 29.6422 20.409 28.6283C21.042 28.0344 21.6487 27.4126 22.2292 26.7629C22.6687 26.274 23.0918 25.7687 23.4985 25.247C24.2265 24.3167 24.8956 23.3422 25.5056 22.3283C25.6761 22.0461 25.8401 21.7623 25.9975 21.4768C26.5731 20.4433 27.0847 19.3752 27.5324 18.2727C27.7784 17.669 28.003 17.0554 28.2064 16.432C28.4786 15.6051 28.7147 14.7635 28.9148 13.9071C29.2444 12.4748 29.4707 11.0032 29.5838 9.50203C29.6363 8.77688 29.6625 8.04516 29.6625 7.30689C29.6625 6.5194 29.633 5.74011 29.574 4.96902C29.451 3.46294 29.2198 1.99131 28.8803 0.559062C29.8478 0.614843 30.8071 0.695233 31.7582 0.800232C32.2239 0.852731 32.6864 0.911793 33.1455 0.977417C34.0835 1.10867 35.0133 1.26616 35.9348 1.44991C36.5613 1.57132 37.1827 1.70585 37.7993 1.8535C38.5471 2.03069 39.2866 2.22428 40.018 2.43428C40.8313 2.66396 41.6349 2.91498 42.4285 3.18732C42.9762 3.37107 43.5174 3.56466 44.0519 3.76809C45.0818 4.15856 46.0952 4.5802 47.0922 5.03301C47.3578 5.15441 47.6218 5.27746 47.8842 5.40214C49.1141 5.98784 50.3243 6.62276 51.5 7.30689C51.5 8.68172 51.4459 10.0418 51.3377 11.3871C51.3147 11.6791 51.2885 11.9711 51.2589 12.2632C51.154 13.3624 51.0146 14.4501 50.8408 15.5263C50.749 16.0973 50.6457 16.6666 50.5309 17.2342C50.3702 18.0611 50.1881 18.8798 49.9848 19.6902C49.7979 20.4416 49.5945 21.1848 49.3748 21.9198C49.1944 22.5235 49.0042 23.124 48.8041 23.7212C48.4959 24.6235 48.1646 25.5144 47.8104 26.3937C47.6366 26.8203 47.4579 27.2436 47.2742 27.6636C46.8872 28.5561 46.474 29.4354 46.0345 30.3017C45.8213 30.7282 45.6016 31.1499 45.3753 31.5666C44.9161 32.4131 44.434 33.2449 43.929 34.062C43.6797 34.4688 43.4239 34.8724 43.1615 35.2727C42.6302 36.0832 42.076 36.8772 41.4987 37.6549C41.2233 38.0257 40.9428 38.3948 40.6575 38.7623C40.0737 39.5071 39.4703 40.2339 38.8472 40.9427C38.4274 41.4217 37.9994 41.8909 37.5632 42.3503C37.0384 42.9081 36.5006 43.4528 35.9496 43.9844C35.3429 44.5717 34.723 45.1426 34.09 45.6972C33.6571 46.0745 33.2193 46.4453 32.7766 46.8095C31.9271 47.5051 31.0547 48.1745 30.1594 48.8176C29.9265 48.9849 29.6904 49.1506 29.451 49.3147C28.3343 50.0874 27.1831 50.8159 25.9975 51.5C24.8169 50.8159 23.6657 50.0874 22.549 49.3147ZM4.18959 26.3937C3.83539 25.5144 3.50415 24.6235 3.19586 23.7212C2.9958 23.124 2.80559 22.5235 2.62521 21.9198C2.40547 21.1848 2.20213 20.4416 2.01519 19.6902C1.81186 18.8798 1.6282 18.0611 1.46421 17.2342C1.35271 16.6666 1.25104 16.0973 1.15921 15.5263C0.985386 14.4501 0.846002 13.3624 0.741053 12.2632C0.711537 11.9711 0.6853 11.6791 0.662342 11.3871C0.554114 10.0418 0.5 8.68172 0.5 7.30689C1.67575 6.62276 2.88594 5.98784 4.1158 5.40214C4.37817 5.27746 4.64218 5.15441 4.90783 5.03301C5.90484 4.5802 6.91825 4.15856 7.94806 3.76809C8.48264 3.56466 9.02378 3.37107 9.57148 3.18732C10.3651 2.91498 11.1687 2.66396 11.982 2.43428C12.7134 2.22428 13.4529 2.03069 14.2007 1.8535C14.8173 1.70585 15.4388 1.57132 16.0652 1.44991C16.9867 1.26616 17.9165 1.10867 18.8545 0.977417C19.3136 0.911793 19.7761 0.852731 20.2418 0.800232C21.1929 0.695233 22.1522 0.614843 23.1197 0.559062C23.6018 0.532812 24.0855 0.513125 24.5709 0.5C24.9645 1.8978 25.2399 3.34974 25.3875 4.83613C25.4662 5.64987 25.5072 6.47346 25.5105 7.30689C25.5072 7.99595 25.4794 8.68008 25.4269 9.35929C25.299 10.8851 25.0382 12.3764 24.6545 13.8185C24.4135 14.7093 24.1232 15.5854 23.7936 16.432C23.5313 17.0948 23.2443 17.7444 22.9327 18.381C22.4457 19.3604 21.8947 20.3104 21.2896 21.216C20.8928 21.8099 20.4714 22.3841 20.0253 22.9386C19.4547 23.6523 18.8447 24.3364 18.2002 24.9812C17.1327 26.0492 15.9717 27.0237 14.7271 27.8851C13.4923 28.7415 12.1788 29.4896 10.7964 30.1146C9.46325 30.7151 8.07104 31.2073 6.62472 31.5666C6.39843 31.1499 6.17705 30.7282 5.9606 30.3017C5.5244 29.4354 5.11281 28.5561 4.72581 27.6636C4.54215 27.2436 4.36341 26.8203 4.18959 26.3937ZM12.8232 24.046C14.1023 23.101 15.2682 22.0182 16.2964 20.8124C16.6998 20.3432 17.0802 19.8559 17.4377 19.3506C18.1904 18.2973 18.8447 17.1653 19.3907 15.9742C19.6498 15.4131 19.8827 14.8406 20.0893 14.2565C20.6107 12.7849 20.9748 11.2345 21.1519 9.62999C21.2355 8.86711 21.2798 8.08946 21.2798 7.30689C21.2798 6.55549 21.2404 5.81394 21.1617 5.08222C20.2008 5.18066 19.248 5.30863 18.3035 5.46613C17.8837 5.53503 17.4656 5.6105 17.0491 5.69253C15.9569 5.90581 14.8796 6.15518 13.817 6.44065C13.5284 6.5194 13.2414 6.59979 12.9561 6.68182C11.741 7.03619 10.5455 7.43978 9.3747 7.88767C9.1484 7.97298 8.92375 8.05993 8.70073 8.14852C7.41184 8.66532 6.15245 9.23625 4.92259 9.86132C4.99638 11.2542 5.13413 12.6323 5.32599 13.9858C5.36206 14.2286 5.39978 14.4698 5.43913 14.7093C5.63591 15.9595 5.88352 17.1932 6.18197 18.4105C6.25412 18.7026 6.32792 18.9946 6.40335 19.2866C6.68868 20.3596 7.01008 21.4161 7.36756 22.4563C7.50531 22.8599 7.64961 23.2618 7.80047 23.6621C8.13828 24.5645 8.50232 25.4537 8.89259 26.3298C10.2897 25.7096 11.6081 24.9418 12.8232 24.046Z" fill="url(#paint0_linear_1251_32447)"/>
<defs>
<linearGradient id="paint0_linear_1251_32447" x1="1.775" y1="0.500029" x2="56.7086" y2="6.07507" gradientUnits="userSpaceOnUse">
<stop stop-color="#FF9C7D"/>
<stop offset="0.34375" stop-color="#FE54A5"/>
<stop offset="1" stop-color="#970BD9"/>
</linearGradient>
</defs>
</svg>
