<svg width="16" height="16" viewBox="0 0 16 16" fill="none" xmlns="http://www.w3.org/2000/svg">
<g id="fi-rs-calendar" clip-path="url(#clip0_232_20923)">
<g id="01 align center">
<path id="Vector" d="M14 1.33333H12V0H10.6667V1.33333H5.33333V0H4V1.33333H2C1.46957 1.33333 0.960859 1.54405 0.585786 1.91912C0.210714 2.29419 0 2.8029 0 3.33333L0 16H16V3.33333C16 2.8029 15.7893 2.29419 15.4142 1.91912C15.0391 1.54405 14.5304 1.33333 14 1.33333ZM1.33333 3.33333C1.33333 3.15652 1.40357 2.98695 1.5286 2.86193C1.65362 2.7369 1.82319 2.66667 2 2.66667H14C14.1768 2.66667 14.3464 2.7369 14.4714 2.86193C14.5964 2.98695 14.6667 3.15652 14.6667 3.33333V5.33333H1.33333V3.33333ZM1.33333 14.6667V6.66667H14.6667V14.6667H1.33333Z" fill="#348C41"/>
<path id="Vector_2" d="M11.3333 8.66699H10V10.0003H11.3333V8.66699Z" fill="#348C41"/>
<path id="Vector_3" d="M8.66678 8.66699H7.33344V10.0003H8.66678V8.66699Z" fill="#348C41"/>
<path id="Vector_4" d="M5.9999 8.66699H4.66656V10.0003H5.9999V8.66699Z" fill="#348C41"/>
<path id="Vector_5" d="M11.3333 11.333H10V12.6663H11.3333V11.333Z" fill="#348C41"/>
<path id="Vector_6" d="M8.66678 11.333H7.33344V12.6663H8.66678V11.333Z" fill="#348C41"/>
<path id="Vector_7" d="M5.9999 11.333H4.66656V12.6663H5.9999V11.333Z" fill="#348C41"/>
</g>
</g>
<defs>
<clipPath id="clip0_232_20923">
<rect width="16" height="16" fill="white"/>
</clipPath>
</defs>
</svg>
